<?xml version="1.0" encoding="utf-8"?>
<!-- Generator: Adobe Illustrator 25.2.3, SVG Export Plug-In . SVG Version: 6.00 Build 0)  -->
<svg version="1.1" id="Layer_1" xmlns="http://www.w3.org/2000/svg" xmlns:xlink="http://www.w3.org/1999/xlink" x="0px" y="0px"
	 viewBox="0 0 256 256" style="enable-background:new 0 0 256 256;" xml:space="preserve">
<style type="text/css">
	.st0{fill:#FFFFFF;}
</style>
<path class="st0" d="M128.17,15.09c-61.03,0-110.5,49.47-110.5,110.5s49.47,110.5,110.5,110.5s110.5-49.47,110.5-110.5
	S189.19,15.09,128.17,15.09z M152.36,129.81h-19.98v19.98c0,2.33-1.89,4.22-4.22,4.22c-2.33,0-4.22-1.89-4.22-4.22v-19.98h-19.98
	c-2.33,0-4.22-1.89-4.22-4.22s1.89-4.22,4.22-4.22h19.98v-19.98c0-2.33,1.89-4.22,4.22-4.22c2.33,0,4.22,1.89,4.22,4.22v19.98h19.98
	c2.33,0,4.22,1.89,4.22,4.22S154.69,129.81,152.36,129.81z"/>
</svg>
